<svg width="17" height="16" viewBox="0 0 17 16" fill="none" xmlns="http://www.w3.org/2000/svg">
<path fill-rule="evenodd" clip-rule="evenodd" d="M8.49984 1.99999C5.18613 1.99999 2.49984 4.68628 2.49984 7.99999C2.49984 11.3137 5.18613 14 8.49984 14C11.8135 14 14.4998 11.3137 14.4998 7.99999C14.4998 4.68628 11.8135 1.99999 8.49984 1.99999ZM1.1665 7.99999C1.1665 3.9499 4.44975 0.666656 8.49984 0.666656C12.5499 0.666656 15.8332 3.9499 15.8332 7.99999C15.8332 12.0501 12.5499 15.3333 8.49984 15.3333C4.44975 15.3333 1.1665 12.0501 1.1665 7.99999ZM8.67192 5.34954C8.36157 5.2963 8.0424 5.35462 7.77093 5.51417C7.49946 5.67371 7.29322 5.92418 7.18873 6.22122C7.06655 6.56855 6.68593 6.75106 6.33861 6.62888C5.99128 6.5067 5.80877 6.12609 5.93095 5.77876C6.13993 5.18469 6.55242 4.68374 7.09535 4.36466C7.63829 4.04557 8.27663 3.92893 8.89733 4.03539C9.51802 4.14186 10.081 4.46456 10.4866 4.94634C10.8921 5.42812 11.1141 6.03789 11.1132 6.66765L10.4465 6.66666H11.1132C11.1132 6.66699 11.1132 6.66732 11.1132 6.66765C11.1127 7.68767 10.3564 8.3613 9.8163 8.72136C9.52588 8.91497 9.24021 9.05733 9.02976 9.15086C8.92359 9.19805 8.83419 9.23386 8.76977 9.2584C8.73751 9.27069 8.71135 9.28022 8.6923 9.28699C8.68278 9.29037 8.67502 9.29308 8.66915 9.2951L8.66178 9.29762L8.65918 9.29849L8.65772 9.29898C8.65752 9.29905 8.65732 9.29911 8.4465 8.66666L8.23569 8.0342C8.23557 8.03424 8.23545 8.03428 8.23534 8.03432L8.24563 8.0307C8.25588 8.02705 8.27269 8.02096 8.29511 8.01241C8.34007 7.99529 8.40691 7.9686 8.48825 7.93245C8.6528 7.85931 8.86713 7.75168 9.0767 7.61196C9.53644 7.30547 9.77984 6.97941 9.77984 6.66666L9.77984 6.66566C9.78031 6.35078 9.66932 6.0459 9.46654 5.80501C9.26376 5.56412 8.98226 5.40277 8.67192 5.34954ZM8.23437 8.03464C7.88593 8.15158 7.69776 8.52862 7.81405 8.87748C7.93048 9.22677 8.30803 9.41554 8.65732 9.29911L8.4465 8.66666C8.23569 8.0342 8.23551 8.03426 8.23534 8.03432L8.23437 8.03464C8.23441 8.03463 8.23429 8.03467 8.23437 8.03464ZM7.83317 11.3333C7.83317 10.9651 8.13165 10.6667 8.49984 10.6667H8.5065C8.87469 10.6667 9.17317 10.9651 9.17317 11.3333C9.17317 11.7015 8.87469 12 8.5065 12H8.49984C8.13165 12 7.83317 11.7015 7.83317 11.3333Z" fill="#CC3D6A"/>
</svg>
