<svg width="17" height="16" viewBox="0 0 17 16" fill="none" xmlns="http://www.w3.org/2000/svg">
<path fill-rule="evenodd" clip-rule="evenodd" d="M8.49984 1.99999C5.18613 1.99999 2.49984 4.68628 2.49984 7.99999C2.49984 11.3137 5.18613 14 8.49984 14C11.8135 14 14.4998 11.3137 14.4998 7.99999C14.4998 4.68628 11.8135 1.99999 8.49984 1.99999ZM1.1665 7.99999C1.1665 3.9499 4.44975 0.666656 8.49984 0.666656C12.5499 0.666656 15.8332 3.9499 15.8332 7.99999C15.8332 12.0501 12.5499 15.3333 8.49984 15.3333C4.44975 15.3333 1.1665 12.0501 1.1665 7.99999ZM8.49984 3.33332C8.86803 3.33332 9.1665 3.6318 9.1665 3.99999V6.9213L10.8684 6.07037C11.1977 5.90571 11.5981 6.0392 11.7628 6.36851C11.9274 6.69783 11.794 7.09828 11.4646 7.26294L8.79798 8.59627C8.59132 8.6996 8.34589 8.68856 8.14935 8.56709C7.95281 8.44562 7.83317 8.23104 7.83317 7.99999V3.99999C7.83317 3.6318 8.13165 3.33332 8.49984 3.33332Z" fill="currentColor"/>
</svg>
